<?xml version="1.0" encoding="UTF-8"?>
<svg width="262px" height="99px" viewBox="0 0 262 99" version="1.1" xmlns="http://www.w3.org/2000/svg" xmlns:xlink="http://www.w3.org/1999/xlink">
    <title>FHWN-UAS-Austria_RGB_horizontal</title>
    <g id="Page-1" stroke="none" stroke-width="1" fill="none" fill-rule="evenodd">
        <g id="FHWN-UAS-Austria_RGB_horizontal" fill-rule="nonzero">
            <path d="M37.77,79.45 C32.21,76.45 26,74.31 20.66,71.53 C14.34,68.24 5.52,63.28 1.6,56.53 C1.49537443,56.3687208 1.29273989,56.3017935 1.1126384,56.3690314 C0.932536902,56.4362693 0.823337468,56.6196146 0.85,56.81 C6.33,80.35 34.98,95.47 37.58,96.81 C37.6994238,96.8705781 37.8405762,96.8705781 37.96,96.81 C41.8781776,94.741766 45.647324,92.4027567 49.24,89.81 C49.4084956,89.6922466 49.4528028,89.4618492 49.34,89.29 C46.49,84.95 42.34,81.95 37.77,79.51" id="Path" fill="#163072"></path>
            <path d="M56.54,65.23 C50.98,60.23 44.54,57.37 37.77,54.62 C33.7,52.95 29.54,51.34 25.45,49.37 C15.45,44.56 7.2,39.55 0.74,30.97 C0.636409709,30.8292506 0.454988616,30.7696349 0.288102834,30.8215048 C0.121217053,30.8733747 0.00555372309,31.0253274 0,31.2 L0,31.82 C0.89,51 12,58.21 29.62,65.12 C32.4047597,66.2125931 35.1257395,67.4612391 37.77,68.86 C44.8656766,72.5137489 51.257816,77.3958807 56.65,83.28 C56.7260008,83.3695698 56.8375315,83.4212047 56.955,83.4212047 C57.0724685,83.4212047 57.1839992,83.3695698 57.26,83.28 C62.1,78.13 61.41,73.1 60.26,70.15 C59.4471813,68.2158954 58.1569269,66.519641 56.51,65.22" id="Path" fill="#61A4D7"></path>
            <path d="M78.12,21.46 L78.12,19.03 C78.1145372,16.9595741 76.440404,15.2809765 74.37,15.27 L59.37,15.27 C58.9557864,15.27 58.62,14.9342136 58.62,14.52 L58.62,8.39 C58.6146142,7.97803794 58.2819621,7.64538581 57.87,7.64 L48.06,7.64 C47.8602668,7.64271784 47.6679182,7.56457326 47.5266725,7.42332752 C47.3854267,7.28208178 47.3072822,7.08973315 47.31,6.89 L47.31,0.75 C47.3045281,0.334174021 46.965862,0 46.55,0 L36.79,0 C36.1,0 36.79,0 34.95,1.07 C34.57,1.25 34.2,1.41 33.85,1.56 C31.2046045,2.59614652 28.3193434,2.85970403 25.53,2.32 C24.1093878,2.06027866 22.7091542,1.69935924 21.34,1.24 L18.42,0.03 C18.1428718,-0.0263204228 17.8576249,0.0780277932 17.6822567,0.299879103 C17.5068885,0.521730414 17.4712177,0.823362599 17.59,1.08 L19.3,4.43 C20.4369608,6.68194249 21.9218575,8.74054922 23.7,10.53 C21.5513528,10.4954765 19.4165004,10.1794511 17.35,9.59 L16.75,9.38 C12.7910463,7.94518723 9.21542669,5.61846825 6.3,2.58 L4.23,0.2 C4.01051202,0.0194603811 3.70702075,-0.0194279873 3.44910379,0.0999385404 C3.19118683,0.219305068 3.02441786,0.475834538 3.02,0.76 L3.02,4.51 C3.02,21.73 19.59,27.91 19.59,27.91 C17.8764593,28.4043277 16.0881313,28.5872249 14.31,28.45 L14.23,28.45 C14.1072192,28.4259633 13.982865,28.4833777 13.9215277,28.5924218 C13.8601904,28.701466 13.8756997,28.8375536 13.96,28.93 C17.11,32.39 23.31,35.93 23.31,35.93 C28.1383511,38.0305817 33.2951242,39.2757867 38.55,39.61 C37.3741213,40.1978669 36.1453271,40.6733132 34.88,41.03 C34.7861116,41.03 34.71,41.1061116 34.71,41.2 C34.71,41.2938884 34.7861116,41.37 34.88,41.37 C41.54,43.48 49.4,46.62 54.02,48.53 C57.8369277,50.0858027 61.4501899,52.100633 64.78,54.53 C68.3456933,57.0634922 70.6740343,60.986438 71.19,65.33 C71.2155241,65.4835094 71.3320653,65.6059422 71.4841305,65.6389998 C71.6361956,65.6720575 71.7930482,65.6090581 71.88,65.48 C76.88,57.48 76.96,52.18 76.96,52.18 C77.3544875,49.0422105 75.5961271,46.0296349 72.67,44.83 C77.03,45.06 77.93,41.71 78.1,39.47 C76.619728,40.645997 74.7804638,41.2779131 72.89,41.26 C68.76,41.26 65.41,38.43 65.41,34.94 C65.41,31.45 68.76,28.61 72.89,28.61 C74.8001249,28.5874809 76.6577541,29.2349974 78.14,30.44 L78.14,27.91 L78.14,27.91 L78.14,27.43 C78.14,25.43 75.83,24.99 75.83,24.99 C76.2783595,24.7921504 76.680319,24.5026032 77.01,24.14 C77.7309171,23.4344151 78.1380837,22.4687457 78.14,21.46" id="Path" fill="#163072"></path>
            <polygon id="Path" fill="#163072" points="99.43 53.24 99.43 55.24 104.43 55.24 104.43 58.03 99.43 58.03 99.43 61.71 95.68 61.71 95.68 50.4 104.79 50.4 104.79 53.24"></polygon>
            <path d="M109.01,60.12 L108.43,61.72 L104.58,61.72 L109.36,50.4 L113.23,50.4 L117.83,61.72 L113.83,61.72 L113.27,60.12 L109.01,60.12 Z M111.17,54.12 L109.98,57.43 L112.34,57.43 L111.17,54.12 Z" id="Shape" fill="#163072"></path>
            <path d="M128.82,52.35 L126.65,54.92 C126.06426,54.0539533 125.121099,53.4961307 124.08,53.4 C122.732186,53.5183248 121.698254,54.6470016 121.698254,56 C121.698254,57.3529984 122.732186,58.4816752 124.08,58.6 C125.070839,58.517055 125.991454,58.0549564 126.65,57.31 L128.82,59.62 C127.548821,61.008886 125.771741,61.8271363 123.89,61.89 C122.303837,61.9622456 120.758605,61.3742342 119.621734,60.2657855 C118.484864,59.1573369 117.857927,57.6274836 117.89,56.04 C117.89,52.71 120.48,50.28 124.03,50.28 C125.837472,50.3099245 127.559601,51.0541435 128.82,52.35 L128.82,52.35 Z" id="Path" fill="#163072"></path>
            <polygon id="Path" fill="#163072" points="137.15 61.72 137.15 57.64 133.65 57.64 133.65 61.72 129.9 61.72 129.9 50.4 133.65 50.4 133.65 54.79 137.15 54.79 137.15 50.4 140.9 50.4 140.9 61.72"></polygon>
            <polygon id="Path" fill="#163072" points="150.09 61.72 150.09 57.64 146.58 57.64 146.58 61.72 142.84 61.72 142.84 50.4 146.58 50.4 146.58 54.79 150.09 54.79 150.09 50.4 153.84 50.4 153.84 61.72"></polygon>
            <path d="M167.65,56.03 C167.65,59.39 165.04,61.87 161.43,61.87 C157.82,61.87 155.23,59.43 155.23,56.03 C155.23,52.63 157.85,50.26 161.45,50.26 C165.05,50.26 167.65,52.71 167.65,56.03 Z M159.06,56.03 C159.021837,56.7092095 159.255582,57.375678 159.709629,57.8822587 C160.163675,58.3888393 160.800679,58.6938684 161.48,58.73 C162.149228,58.6866606 162.772984,58.376263 163.211126,57.8685455 C163.649267,57.3608279 163.865052,56.6983668 163.81,56.03 C163.865003,55.3646881 163.648358,54.7054434 163.20942,54.202454 C162.770481,53.6994645 162.146633,53.3955689 161.48,53.36 C160.802354,53.3856784 160.163656,53.6833859 159.708245,54.1858437 C159.252834,54.6883016 159.019149,55.3530994 159.06,56.03 L159.06,56.03 Z" id="Shape" fill="#163072"></path>
            <path d="M179.38,52.35 L177.23,54.92 C176.64426,54.0539533 175.701099,53.4961307 174.66,53.4 C173.312186,53.5183248 172.278254,54.6470016 172.278254,56 C172.278254,57.3529984 173.312186,58.4816752 174.66,58.6 C175.649707,58.5130489 176.568918,58.051655 177.23,57.31 L179.39,59.62 C178.118821,61.008886 176.341741,61.8271363 174.46,61.89 C172.873837,61.9622456 171.328605,61.3742342 170.191734,60.2657855 C169.054864,59.1573369 168.427927,57.6274836 168.46,56.04 C168.46,52.71 171.04,50.28 174.6,50.28 C176.404928,50.308192 178.12458,51.0528948 179.38,52.35 Z" id="Path" fill="#163072"></path>
            <polygon id="Path" fill="#163072" points="187.72 61.72 187.72 57.64 184.23 57.64 184.23 61.72 180.48 61.72 180.48 50.4 184.23 50.4 184.23 54.79 187.74 54.79 187.74 50.4 191.49 50.4 191.49 61.72"></polygon>
            <path d="M203.23,51.58 L201.87,54.42 C200.67489,53.7237702 199.352021,53.2748789 197.98,53.1 C197.56,53.1 197.29,53.22 197.29,53.56 C197.29,54.99 203.15,54.1 203.15,58.2 C203.15,60.72 200.94,61.84 198.38,61.84 C196.352092,61.8330724 194.375642,61.2010274 192.72,60.03 L194.11,57.22 C195.345783,58.2265392 196.845808,58.8550221 198.43,59.03 C198.98,59.03 199.33,58.85 199.33,58.44 C199.33,56.98 193.47,57.94 193.47,53.97 C193.47,51.71 195.37,50.28 198.31,50.28 C200.037022,50.2633511 201.736613,50.7124302 203.23,51.58 L203.23,51.58 Z" id="Path" fill="#163072"></path>
            <path d="M214.79,52.35 L212.63,54.92 C212.04426,54.0539533 211.101099,53.4961307 210.06,53.4 C208.712186,53.5183248 207.678254,54.6470016 207.678254,56 C207.678254,57.3529984 208.712186,58.4816752 210.06,58.6 C211.050271,58.5150399 211.970178,58.0532967 212.63,57.31 L214.79,59.62 C213.518821,61.008886 211.741741,61.8271363 209.86,61.89 C208.273837,61.9622456 206.728605,61.3742342 205.591734,60.2657855 C204.454864,59.1573369 203.827927,57.6274836 203.86,56.04 C203.86,52.71 206.44,50.28 210,50.28 C211.808412,50.3055473 213.532145,51.050459 214.79,52.35 L214.79,52.35 Z" id="Path" fill="#163072"></path>
            <polygon id="Path" fill="#163072" points="223.11 61.72 223.11 57.64 219.6 57.64 219.6 61.72 215.86 61.72 215.86 50.4 219.6 50.4 219.6 54.79 223.11 54.79 223.11 50.4 226.86 50.4 226.86 61.72"></polygon>
            <path d="M239.51,56.93 C239.51,59.93 237.39,61.93 234.11,61.93 C230.83,61.93 228.63,59.93 228.63,56.93 L228.63,50.4 L232.38,50.4 L232.38,56.93 C232.358211,57.4087499 232.532595,57.8756823 232.862873,58.2229465 C233.193152,58.5702106 233.65076,58.7677726 234.13,58.77 C234.597015,58.7612469 235.039019,58.557307 235.348751,58.2076709 C235.658483,57.8580348 235.807631,57.3946618 235.76,56.93 L235.76,50.4 L239.51,50.4 L239.51,56.93 Z" id="Path" fill="#163072"></path>
            <polygon id="Path" fill="#163072" points="249.74 58.6 249.74 61.72 241.23 61.72 241.23 50.4 244.98 50.4 244.98 58.6"></polygon>
            <polygon id="Path" fill="#163072" points="254.77 53.24 254.77 54.63 260.07 54.63 260.07 57.47 254.77 57.47 254.77 58.88 260.77 58.88 260.77 61.72 251.04 61.72 251.04 50.4 260.63 50.4 260.63 53.24"></polygon>
            <polygon id="Path" fill="#61A4D7" points="105.5 81.13 103.93 74.36 102.32 81.13 98.45 81.13 94.79 69.8 98.79 69.8 100.51 77.23 102.19 69.81 105.84 69.81 107.55 77.24 109.23 69.81 113.06 69.81 109.36 81.14"></polygon>
            <polygon id="Path" fill="#61A4D7" points="113.95 81.13 113.95 69.8 117.7 69.8 117.7 81.13"></polygon>
            <polygon id="Path" fill="#61A4D7" points="123.23 72.64 123.23 74.03 128.53 74.03 128.53 76.88 123.23 76.88 123.23 78.28 129.23 78.28 129.23 81.13 119.5 81.13 119.5 69.8 129.08 69.8 129.08 72.64"></polygon>
            <polygon id="Path" fill="#61A4D7" points="138.65 81.13 134.23 75.34 134.23 81.13 130.82 81.13 130.82 69.8 133.95 69.8 138.43 75.62 138.43 69.8 141.82 69.8 141.82 81.13"></polygon>
            <polygon id="Path" fill="#61A4D7" points="147.31 72.64 147.31 74.03 152.61 74.03 152.61 76.88 147.31 76.88 147.31 78.28 153.31 78.28 153.31 81.13 143.58 81.13 143.58 69.8 153.16 69.8 153.16 72.64"></polygon>
            <path d="M160.02,78.19 L158.62,78.19 L158.62,81.13 L154.87,81.13 L154.87,69.8 L160.34,69.8 C163.41,69.8 165.18,71.27 165.18,73.8 C165.282874,75.2360359 164.592286,76.613376 163.38,77.39 L165.61,81.08 L161.38,81.08 L160.02,78.19 Z M160.34,75.34 C160.70264,75.3643275 161.057008,75.2243552 161.305138,74.9587784 C161.553268,74.6932016 161.668875,74.3301538 161.62,73.97 C161.663352,73.6146425 161.544421,73.2586499 161.296177,73.0007092 C161.047933,72.7427685 160.696757,72.6102904 160.34,72.64 L158.62,72.64 L158.62,75.34 L160.34,75.34 Z" id="Shape" fill="#61A4D7"></path>
            <polygon id="Path" fill="#61A4D7" points="178.15 81.13 173.69 75.34 173.69 81.13 170.28 81.13 170.28 69.8 173.41 69.8 177.89 75.62 177.89 69.8 181.28 69.8 181.28 81.13"></polygon>
            <polygon id="Path" fill="#61A4D7" points="186.8 72.64 186.8 74.03 192.11 74.03 192.11 76.88 186.8 76.88 186.8 78.28 192.8 78.28 192.8 81.13 183.08 81.13 183.08 69.8 192.66 69.8 192.66 72.64"></polygon>
            <path d="M205.08,76.33 C205.08,79.33 202.96,81.33 199.68,81.33 C196.4,81.33 194.2,79.33 194.2,76.33 L194.2,69.8 L197.95,69.8 L197.95,76.33 C197.928211,76.8087499 198.102595,77.2756823 198.432873,77.6229465 C198.763152,77.9702106 199.22076,78.1677726 199.7,78.17 C200.167015,78.1612469 200.609019,77.957307 200.918751,77.6076709 C201.228483,77.2580348 201.377631,76.7946618 201.33,76.33 L201.33,69.8 L205.08,69.8 L205.08,76.33 Z" id="Path" fill="#61A4D7"></path>
            <path d="M216.53,71.03 L215.17,73.87 C213.974214,73.1752552 212.651653,72.7264685 211.28,72.55 C210.86,72.55 210.58,72.68 210.58,73.02 C210.58,74.44 216.45,73.55 216.45,77.65 C216.45,80.17 214.24,81.2900013 211.68,81.2900013 C209.647751,81.2910566 207.665753,80.6583553 206.01,79.48 L207.4,76.67 C208.637914,77.6582648 210.134163,78.2692622 211.71,78.43 C212.26,78.43 212.62,78.25 212.62,77.85 C212.62,76.38 206.75,77.35 206.75,73.37 C206.75,71.11 208.66,69.6899544 211.6,69.6899544 C213.334005,69.6846634 215.03728,70.1476226 216.53,71.03 L216.53,71.03 Z" id="Path" fill="#61A4D7"></path>
            <polygon id="Path" fill="#61A4D7" points="223.82 72.76 223.82 81.13 220.07 81.13 220.07 72.76 216.85 72.76 216.85 69.76 227.05 69.76 227.05 72.76"></polygon>
            <path d="M230.23,79.53 L229.65,81.13 L225.83,81.13 L230.62,69.8 L234.46,69.8 L239.07,81.13 L235.07,81.13 L234.5,79.53 L230.23,79.53 Z M232.4,73.53 L231.2,76.84 L233.56,76.84 L232.4,73.53 Z" id="Shape" fill="#61A4D7"></path>
            <path d="M244.93,69.8 C248.66,69.8 251.09,72.01 251.09,75.45 C251.09,78.89 248.62,81.13 244.79,81.13 L239.87,81.13 L239.87,69.8 L244.93,69.8 Z M243.62,78.22 L245.03,78.22 C246.39,78.22 247.26,77.15 247.26,75.49 C247.26,73.83 246.26,72.71 244.85,72.71 L243.62,72.71 L243.62,78.22 Z" id="Shape" fill="#61A4D7"></path>
            <polygon id="Path" fill="#61A4D7" points="258.05 72.76 258.05 81.13 254.3 81.13 254.3 72.76 251.08 72.76 251.08 69.76 261.28 69.76 261.28 72.76"></polygon>
            <path d="M99.97,94.26 C99.884869,95.630716 98.7483571,96.6988324 97.375,96.6988324 C96.0016429,96.6988324 94.865131,95.630716 94.78,94.26 L94.78,90.62 L95.49,90.62 L95.49,94.26 C95.4429311,94.7760436 95.6283136,95.2862145 95.9956917,95.6516591 C96.3630699,96.0171037 96.874212,96.1997914 97.39,96.15 C97.9026663,96.1976472 98.4097162,96.0131215 98.7718466,95.647118 C99.133977,95.2811146 99.3130983,94.7721304 99.26,94.26 L99.26,90.62 L99.97,90.62 L99.97,94.26 Z" id="Path" fill="#163072"></path>
            <path d="M105.81,93.93 L105.81,96.8 L105.12,96.8 L105.12,94.12 C105.154536,93.7630932 105.027657,93.4094429 104.774107,93.1558928 C104.520557,92.9023428 104.166907,92.7754637 103.81,92.81 C103.404379,92.7965287 103.010411,92.9469039 102.716927,93.2272189 C102.423443,93.507534 102.255152,93.8941885 102.25,94.3 L102.25,96.8 L101.56,96.8 L101.56,92.15 L102.23,92.15 L102.23,93.15 C102.571914,92.4827008 103.282792,92.0877686 104.03,92.15 C104.514101,92.1065635 104.992531,92.2800966 105.336217,92.6237828 C105.679903,92.9674691 105.853436,93.445899 105.81,93.93 L105.81,93.93 Z" id="Path" fill="#163072"></path>
            <path d="M108.23,90.82 C108.235462,90.9427735 108.190474,91.0624394 108.105483,91.1512074 C108.020493,91.2399754 107.902895,91.2901214 107.78,91.29 C107.657105,91.2901214 107.539507,91.2399754 107.454517,91.1512074 C107.369526,91.0624394 107.324538,90.9427735 107.33,90.82 C107.324589,90.6962907 107.369283,90.5756245 107.453974,90.4852877 C107.538664,90.3949509 107.656199,90.3425736 107.78,90.34 C107.903801,90.3425736 108.021336,90.3949509 108.106026,90.4852877 C108.190717,90.5756245 108.235411,90.6962907 108.23,90.82 L108.23,90.82 Z M107.45,96.82 L107.45,92.17 L108.13,92.17 L108.13,96.82 L107.45,96.82 Z" id="Shape" fill="#163072"></path>
            <polygon id="Path" fill="#163072" points="110.92 96.8 109.08 92.15 109.81 92.15 111.29 96.08 112.77 92.15 113.46 92.15 111.64 96.8"></polygon>
            <path d="M118.23,94.74 L114.43,94.74 C114.504031,95.6047164 115.242632,96.2597853 116.11,96.23 C116.651303,96.2429036 117.173367,96.0290021 117.55,95.64 L117.93,96.05 C117.445865,96.5628619 116.764892,96.8432625 116.06,96.82 C114.824246,96.7392594 113.863216,95.7133889 113.863216,94.475 C113.863216,93.2366111 114.824246,92.2107406 116.06,92.13 C117.55,92.12 118.29,93.16 118.23,94.74 Z M117.61,94.18 C117.613752,93.7757322 117.448555,93.3882545 117.154266,93.1110532 C116.859977,92.833852 116.463321,92.6921009 116.06,92.72 C115.214951,92.6910286 114.498746,93.3364981 114.44,94.18 L117.61,94.18 Z" id="Shape" fill="#163072"></path>
            <path d="M120.23,93.18 C120.512177,92.5138527 121.177102,92.0918042 121.9,92.12 L121.9,92.82 C121.474721,92.7839169 121.05354,92.9259462 120.736957,93.2121975 C120.420375,93.4984488 120.236786,93.9032468 120.23,94.33 L120.23,96.8 L119.54,96.8 L119.54,92.15 L120.23,92.15 L120.23,93.18 Z" id="Path" fill="#163072"></path>
            <path d="M125.58,92.55 L125.32,93.09 C124.941286,92.8547715 124.505768,92.7268811 124.06,92.72 C123.53,92.72 123.14,92.9 123.14,93.33 C123.14,94.33 125.73,93.84 125.73,95.5 C125.73,96.42 124.92,96.82 124.03,96.82 C123.375861,96.8359603 122.739924,96.603736 122.25,96.17 L122.51,95.65 C122.938746,96.0269262 123.489137,96.23643 124.06,96.24 C124.6,96.24 125.06,96.04 125.06,95.58 C125.06,94.46 122.49,95.03 122.5,93.39 C122.5,92.49 123.26,92.12 124.11,92.12 C124.631809,92.1143219 125.143511,92.2640036 125.58,92.55 L125.58,92.55 Z" id="Path" fill="#163072"></path>
            <path d="M127.74,90.82 C127.745462,90.9427735 127.700474,91.0624394 127.615483,91.1512074 C127.530493,91.2399754 127.412895,91.2901214 127.29,91.29 C127.167105,91.2901214 127.049507,91.2399754 126.964517,91.1512074 C126.879526,91.0624394 126.834538,90.9427735 126.84,90.82 C126.834589,90.6962907 126.879283,90.5756245 126.963974,90.4852877 C127.048664,90.3949509 127.166199,90.3425736 127.29,90.34 C127.413801,90.3425736 127.531336,90.3949509 127.616026,90.4852877 C127.700717,90.5756245 127.745411,90.6962907 127.74,90.82 L127.74,90.82 Z M126.95,96.82 L126.95,92.17 L127.63,92.17 L127.63,96.82 L126.95,96.82 Z" id="Shape" fill="#163072"></path>
            <path d="M131.79,96.48 C131.482215,96.6977404 131.116873,96.819521 130.74,96.83 C130.07,96.83 129.56,96.43 129.56,95.51 L129.56,92.86 L128.89,92.86 L128.89,92.3 L129.56,92.3 L129.56,91.03 L130.23,91.03 L130.23,92.26 L131.7,92.26 L131.7,92.83 L130.23,92.83 L130.23,95.36 C130.23,95.92 130.45,96.13 130.85,96.13 C131.112716,96.1204167 131.368139,96.0410287 131.59,95.9 L131.79,96.48 Z" id="Path" fill="#163072"></path>
            <path d="M134.41,97.46 C134.271799,97.9429404 133.899561,98.3237376 133.419887,98.47288 C132.940213,98.6220224 132.417678,98.5194319 132.03,98.2 L132.33,97.63 C132.516988,97.7720476 132.745178,97.8492812 132.98,97.85 C133.374774,97.8329166 133.71565,97.568236 133.83,97.19 L134.02,96.76 L132.1,92.15 L132.82,92.15 L134.36,95.99 L135.84,92.15 L136.54,92.15 L134.41,97.46 Z" id="Path" fill="#163072"></path>
            <path d="M143.64,94.47 C143.648105,95.4263092 143.078276,96.29297 142.197077,96.6645631 C141.315878,97.0361563 140.297537,96.8392113 139.618429,96.165858 C138.93932,95.4925047 138.733716,94.4758768 139.097796,93.5915473 C139.461877,92.7072179 140.323656,92.1300343 141.28,92.13 C141.911515,92.0985498 142.527119,92.3342734 142.97612,92.779469 C143.42512,93.2246647 143.666075,93.8382398 143.64,94.47 L143.64,94.47 Z M139.64,94.47 C139.667417,95.3853047 140.426803,96.1078146 141.342338,96.089672 C142.257874,96.0715295 142.988039,95.3195023 142.979173,94.40383 C142.970307,93.4881577 142.225715,92.7504105 141.31,92.75 C140.847776,92.7292294 140.398505,92.9058771 140.074207,93.2358973 C139.74991,93.5659176 139.581148,94.0182103 139.61,94.48 L139.64,94.47 Z" id="Shape" fill="#163072"></path>
            <path d="M145.73,91.69 L145.73,92.29 L147.06,92.29 L147.06,92.86 L145.73,92.86 L145.73,96.8 L145.05,96.8 L145.05,92.86 L144.45,92.86 L144.45,92.29 L145.05,92.29 L145.05,91.78 C145.02488,91.3712859 145.171378,90.9706174 145.454208,90.6745002 C145.737038,90.378383 146.130564,90.2136576 146.54,90.22 C146.899748,90.2220703 147.249679,90.3375476 147.54,90.55 L147.26,91.1 C147.0523,90.9514984 146.805203,90.8679726 146.55,90.86 C146.327314,90.8480845 146.110177,90.9320544 145.953448,91.0906952 C145.796718,91.2493361 145.715386,91.4674747 145.73,91.69 Z" id="Path" fill="#163072"></path>
            <path d="M150.78,95.24 L150.09,96.8 L149.34,96.8 L152.11,90.62 L152.84,90.62 L155.6,96.8 L154.83,96.8 L154.15,95.24 L150.78,95.24 Z M152.45,91.43 L151.08,94.56 L153.85,94.56 L152.45,91.43 Z" id="Shape" fill="#163072"></path>
            <path d="M160.97,94.49 C161.015416,95.1015003 160.8,95.7036706 160.377019,96.1476101 C159.954038,96.5915496 159.362981,96.8358128 158.75,96.82 C158.006876,96.8637958 157.305408,96.4740913 156.95,95.82 L156.95,98.53 L156.23,98.53 L156.23,92.17 L156.92,92.17 L156.92,93.17 C157.272018,92.5175129 157.969821,92.1276786 158.71,92.17 C159.325222,92.152284 159.919734,92.393093 160.349204,92.8339647 C160.778674,93.2748364 161.003827,93.875453 160.97,94.49 L160.97,94.49 Z M160.27,94.49 C160.231732,93.583308 159.472442,92.8753957 158.565294,92.9006432 C157.658146,92.9258907 156.939406,93.6749391 156.951627,94.5823561 C156.963849,95.489773 157.702501,96.2191928 158.61,96.22 C159.061219,96.2155147 159.490654,96.025311 159.797193,95.694173 C160.103732,95.3630351 160.260288,94.9202235 160.23,94.47 L160.27,94.49 Z" id="Shape" fill="#163072"></path>
            <path d="M167.02,94.49 C167.065217,95.0997242 166.851122,95.700233 166.430372,96.1438292 C166.009622,96.5874253 165.421261,96.8329444 164.81,96.82 C164.063929,96.8652736 163.358795,96.4756967 163,95.82 L163,98.53 L162.31,98.53 L162.31,92.17 L163,92.17 L163,93.17 C163.353835,92.5193069 164.050396,92.130167 164.79,92.17 C165.400067,92.1607678 165.986569,92.4053028 166.409384,92.8451822 C166.8322,93.2850616 167.05335,93.8807757 167.02,94.49 L167.02,94.49 Z M166.33,94.49 C166.297089,93.5749231 165.533451,92.8570039 164.618086,92.8805773 C163.702721,92.9041508 162.977048,93.6604244 162.991281,94.5759824 C163.005514,95.4915403 163.754345,96.2248914 164.67,96.22 C165.128165,96.2266231 165.568208,96.041268 165.883552,95.7088267 C166.198897,95.3763854 166.360782,94.927178 166.33,94.47 L166.33,94.49 Z" id="Shape" fill="#163072"></path>
            <polygon id="Path" fill="#163072" points="168.37 96.8 168.37 90.25 169.05 90.25 169.05 96.8"></polygon>
            <path d="M171.65,90.82 C171.655462,90.9427735 171.610474,91.0624394 171.525483,91.1512074 C171.440493,91.2399754 171.322895,91.2901214 171.2,91.29 C171.077105,91.2901214 170.959507,91.2399754 170.874517,91.1512074 C170.789526,91.0624394 170.744538,90.9427735 170.75,90.82 C170.744589,90.6962907 170.789283,90.5756245 170.873974,90.4852877 C170.958664,90.3949509 171.076199,90.3425736 171.2,90.34 C171.323801,90.3425736 171.441336,90.3949509 171.526026,90.4852877 C171.610717,90.5756245 171.655411,90.6962907 171.65,90.82 L171.65,90.82 Z M170.86,96.82 L170.86,92.17 L171.54,92.17 L171.54,96.82 L170.86,96.82 Z" id="Shape" fill="#163072"></path>
            <path d="M177.31,94.74 L173.52,94.74 C173.594359,95.616823 174.35125,96.2763361 175.23,96.23 C175.771303,96.2429036 176.293367,96.0290021 176.67,95.64 L177.05,96.05 C176.56738,96.5650605 175.885365,96.8458903 175.18,96.82 C173.944246,96.7392594 172.983216,95.7133889 172.983216,94.475 C172.983216,93.2366111 173.944246,92.2107406 175.18,92.13 C176.64,92.12 177.38,93.16 177.31,94.74 Z M176.700004,94.18 C176.700952,93.7748184 176.533481,93.3874634 176.237649,93.1105947 C175.941816,92.833726 175.544231,92.6922466 175.14,92.72 C174.296859,92.6962354 173.583727,93.3389347 173.52,94.18 L176.700004,94.18 Z" id="Shape" fill="#163072"></path>
            <path d="M182.85,96.8 L182.17,96.8 L182.17,95.8 C181.799168,96.443575 181.102217,96.8286307 180.36,96.8 C179.056608,96.8 178,95.743392 178,94.44 C178,93.136608 179.056608,92.08 180.36,92.08 C181.105744,92.0475814 181.80748,92.4331508 182.18,93.08 L182.18,90.17 L182.86,90.17 L182.85,96.8 Z M182.17,94.49 C182.142582,93.5691694 181.378716,92.8421819 180.457656,92.860326 C179.536596,92.8784701 178.801954,93.634977 178.810822,94.556173 C178.819691,95.4773689 179.568761,96.2195919 180.49,96.22 C180.947012,96.2288526 181.387219,96.0477255 181.705662,95.7198047 C182.024105,95.3918838 182.192248,94.9465559 182.17,94.49 L182.17,94.49 Z" id="Shape" fill="#163072"></path>
            <path d="M190.49,91.17 L190.19,91.83 C189.683588,91.5000794 189.094321,91.3198329 188.49,91.31 C187.69,91.31 187.17,91.61 187.17,92.13 C187.17,93.72 190.65,92.89 190.640022,95.13 C190.640022,96.13 189.73,96.82 188.41,96.82 C187.530103,96.8148072 186.684251,96.4793214 186.04,95.88 L186.36,95.25 C186.911447,95.784719 187.642285,96.0948794 188.41,96.12 C189.31,96.12 189.86,95.76 189.86,95.12 C189.86,93.49 186.4,94.36 186.4,92.12 C186.4,91.12 187.25,90.53 188.53,90.53 C189.230777,90.5533101 189.910505,90.7752622 190.49,91.17 L190.49,91.17 Z" id="Path" fill="#163072"></path>
            <path d="M195.35,92.82 L194.97,93.31 C194.600184,92.9535372 194.10353,92.7591943 193.59,92.77 C192.693518,92.8385056 192.001053,93.5859041 192.001053,94.485 C192.001053,95.3840959 192.693518,96.1314944 193.59,96.2 C194.133316,96.2290654 194.660086,96.0080427 195.02,95.6 L195.42,96.02 C194.953436,96.5549836 194.269249,96.8492576 193.56,96.82 C192.324246,96.7392594 191.363216,95.7133889 191.363216,94.475 C191.363216,93.2366111 192.324246,92.2107406 193.56,92.13 C194.227247,92.0974439 194.877246,92.3480023 195.35,92.82 L195.35,92.82 Z" id="Path" fill="#163072"></path>
            <path d="M197.55,90.82 C197.55,91.0685281 197.348528,91.27 197.1,91.27 C196.851472,91.27 196.65,91.0685281 196.65,90.82 C196.65,90.5714719 196.851472,90.37 197.1,90.37 C197.348528,90.37 197.55,90.5714719 197.55,90.82 L197.55,90.82 Z M196.77,96.82 L196.77,92.17 L197.44,92.17 L197.44,96.82 L196.77,96.82 Z" id="Shape" fill="#163072"></path>
            <path d="M203.23,94.74 L199.44,94.74 C199.519039,95.6062608 200.260662,96.2601184 201.13,96.23 C201.66808,96.2413205 202.186447,96.0274488 202.56,95.64 L202.94,96.05 C202.45738,96.5650605 201.775365,96.8458903 201.07,96.82 C199.834246,96.7392594 198.873216,95.7133889 198.873216,94.475 C198.873216,93.2366111 199.834246,92.2107406 201.07,92.13 C202.54,92.12 203.28,93.16 203.23,94.74 Z M202.620004,94.18 C202.620952,93.7748184 202.453481,93.3874634 202.157649,93.1105947 C201.861816,92.833726 201.464231,92.6922466 201.06,92.72 C200.216859,92.6962354 199.503727,93.3389347 199.44,94.18 L202.620004,94.18 Z" id="Shape" fill="#163072"></path>
            <path d="M208.74,93.93 L208.74,96.8 L208.05,96.8 L208.05,94.12 C208.084536,93.7630932 207.957657,93.4094429 207.704107,93.1558928 C207.450557,92.9023428 207.096907,92.7754637 206.74,92.81 C206.333433,92.7965439 205.938438,92.9466154 205.643375,93.2266432 C205.348312,93.506671 205.177806,93.8932855 205.17,94.3 L205.17,96.8 L204.49,96.8 L204.49,92.15 L205.17,92.15 L205.17,93.15 C205.513937,92.4846605 206.223387,92.0905215 206.97,92.15 C207.451538,92.1132634 207.924997,92.2893355 208.265522,92.6317842 C208.606047,92.9742329 208.779449,93.4486768 208.74,93.93 L208.74,93.93 Z" id="Path" fill="#163072"></path>
            <path d="M213.99,92.82 L213.61,93.31 C213.240184,92.9535372 212.74353,92.7591943 212.23,92.77 C211.333518,92.8385056 210.641053,93.5859041 210.641053,94.485 C210.641053,95.3840959 211.333518,96.1314944 212.23,96.2 C212.772799,96.2261153 213.298343,96.0056074 213.66,95.6 L214.06,96.02 C213.593436,96.5549836 212.909249,96.8492576 212.2,96.82 C210.964246,96.7392594 210.003216,95.7133889 210.003216,94.475 C210.003216,93.2366111 210.964246,92.2107406 212.2,92.13 C212.867247,92.0974439 213.517246,92.3480023 213.99,92.82 L213.99,92.82 Z" id="Path" fill="#163072"></path>
            <path d="M219.23,94.74 L215.44,94.74 C215.514031,95.6047164 216.252632,96.2597853 217.12,96.23 C217.659967,96.2357971 218.179333,96.0230014 218.56,95.64 L218.94,96.05 C218.455865,96.5628619 217.774892,96.8432625 217.07,96.82 C215.834246,96.7392594 214.873216,95.7133889 214.873216,94.475 C214.873216,93.2366111 215.834246,92.2107406 217.07,92.13 C218.52,92.12 219.23,93.16 219.23,94.74 Z M218.61,94.18 C218.613752,93.7757322 218.448555,93.3882545 218.154266,93.1110532 C217.859977,92.833852 217.463321,92.6921009 217.06,92.72 C216.214951,92.6910286 215.498746,93.3364981 215.44,94.18 L218.61,94.18 Z" id="Shape" fill="#163072"></path>
            <path d="M223.23,92.55 L222.96,93.09 C222.582347,92.8524099 222.146152,92.724321 221.7,92.72 C221.18,92.72 220.79,92.9 220.79,93.33 C220.79,94.33 223.38,93.84 223.38,95.5 C223.38,96.42 222.57,96.82 221.68,96.82 C221.025861,96.8359603 220.389924,96.603736 219.9,96.17 L220.16,95.65 C220.586149,96.0246842 221.132588,96.2340341 221.7,96.24 C222.25,96.24 222.7,96.04 222.7,95.58 C222.7,94.46 220.13,95.03 220.13,93.39 C220.13,92.49 220.9,92.12 221.75,92.12 C222.274957,92.1141429 222.789909,92.2637574 223.23,92.55 L223.23,92.55 Z" id="Path" fill="#163072"></path>
            <polygon id="Path" fill="#163072" points="225.78 94.77 225.78 94.25 229.33 94.25 229.33 94.77"></polygon>
            <path d="M232.96,95.24 L232.27,96.8 L231.52,96.8 L234.29,90.62 L235.02,90.62 L237.78,96.8 L237.02,96.8 L236.33,95.24 L232.96,95.24 Z M234.63,91.43 L233.23,94.56 L236,94.56 L234.63,91.43 Z" id="Shape" fill="#163072"></path>
            <path d="M242.53,96.8 L241.84,96.8 L241.84,95.8 C241.547577,96.5007083 240.836668,96.9329087 240.08,96.87 C239.597788,96.9054042 239.124745,96.7248995 238.788695,96.3772616 C238.452645,96.0296238 238.288275,95.550735 238.34,95.07 L238.34,92.2 L239.03,92.2 L239.03,94.88 C238.996361,95.2331197 239.120675,95.5830292 239.369562,95.8357749 C239.618449,96.0885206 239.966405,96.2182025 240.32,96.19 C240.755289,96.1898503 241.169907,96.0042989 241.460044,95.6798039 C241.750181,95.355309 241.888365,94.9225934 241.84,94.49 L241.84,92.2 L242.53,92.2 L242.53,96.8 Z" id="Path" fill="#163072"></path>
            <path d="M247.01,92.55 L246.75,93.09 C246.371704,92.8538389 245.935921,92.7258707 245.49,92.72 C244.97,92.72 244.57,92.9 244.57,93.33 C244.57,94.33 247.16,93.84 247.16,95.5 C247.16,96.42 246.35,96.82 245.46,96.82 C244.805861,96.8359603 244.169924,96.603736 243.68,96.17 L243.95,95.65 C244.374241,96.0278312 244.921906,96.2376507 245.49,96.24 C246.03,96.24 246.49,96.04 246.49,95.58 C246.49,94.46 243.91,95.03 243.92,93.39 C243.92,92.49 244.69,92.12 245.53,92.12 C246.05537,92.1110887 246.571198,92.2609574 247.01,92.55 Z" id="Path" fill="#163072"></path>
            <path d="M250.78,96.48 C250.471411,96.6961496 250.106561,96.8177665 249.73,96.83 C249.05,96.83 248.55,96.43 248.55,95.51 L248.55,92.86 L247.88,92.86 L247.88,92.3 L248.55,92.3 L248.55,91.03 L249.23,91.03 L249.23,92.26 L250.7,92.26 L250.7,92.83 L249.23,92.83 L249.23,95.36 C249.23,95.92 249.45,96.13 249.85,96.13 C250.112716,96.1204167 250.368139,96.0410287 250.59,95.9 L250.78,96.48 Z" id="Path" fill="#163072"></path>
            <path d="M252.6,93.18 C252.882177,92.5138527 253.547102,92.0918042 254.27,92.12 L254.27,92.82 C253.844721,92.7839169 253.42354,92.9259462 253.106957,93.2121975 C252.790375,93.4984488 252.606786,93.9032468 252.6,94.33 L252.6,96.8 L251.91,96.8 L251.91,92.15 L252.6,92.15 L252.6,93.18 Z" id="Path" fill="#163072"></path>
            <path d="M256.07,90.82 C256.07,90.9807696 255.984231,91.1293268 255.845,91.2097116 C255.70577,91.2900963 255.53423,91.2900963 255.395,91.2097116 C255.255769,91.1293268 255.17,90.9807696 255.17,90.82 C255.17,90.6592304 255.255769,90.5106732 255.395,90.4302884 C255.53423,90.3499037 255.70577,90.3499037 255.845,90.4302884 C255.984231,90.5106732 256.07,90.6592304 256.07,90.82 L256.07,90.82 Z M255.28,96.82 L255.28,92.17 L255.96,92.17 L255.96,96.82 L255.28,96.82 Z" id="Shape" fill="#163072"></path>
            <path d="M260.62,96.08 C260.208846,96.5970692 259.568884,96.8777542 258.91,96.83 C258.507931,96.8692931 258.107848,96.737886 257.80738,96.467845 C257.506912,96.197804 257.333695,95.8139673 257.33,95.41 C257.33,94.6 257.98,94.09 259.07,94.08 L260.6,94.08 L260.6,93.81 C260.6,93.13 260.17,92.72 259.35,92.72 C258.817497,92.7430288 258.304683,92.9279209 257.88,93.25 L257.59,92.75 C258.136243,92.3356747 258.804426,92.1141192 259.49,92.12 C259.95004,92.0545958 260.415421,92.1963351 260.7609,92.5070737 C261.10638,92.8178124 261.296465,93.2656256 261.28,93.73 L261.28,96.8 L260.61,96.8 L260.62,96.08 Z M260.62,95.19 L260.62,94.64 L259.17,94.64 C258.39,94.64 257.99,94.88 257.99,95.39 C257.99,95.9 258.4,96.23 259.06,96.23 C259.755704,96.2861707 260.39822,95.855063 260.61,95.19 L260.62,95.19 Z" id="Shape" fill="#163072"></path>
        </g>
    </g>
</svg>